<svg width="78" height="56" viewBox="0 0 78 56" fill="none" xmlns="http://www.w3.org/2000/svg">
<path d="M6.57539 44.708L6.40739 45.968H4.24739V53H2.65139V45.968H0.419391V44.708H6.57539ZM12.4984 46.472C13.4344 46.472 14.1624 46.772 14.6824 47.372C15.2104 47.964 15.4744 48.78 15.4744 49.82C15.4744 50.484 15.3544 51.072 15.1144 51.584C14.8744 52.088 14.5304 52.48 14.0824 52.76C13.6344 53.04 13.1024 53.18 12.4864 53.18C11.5504 53.18 10.8184 52.884 10.2904 52.292C9.76242 51.692 9.49842 50.868 9.49842 49.82C9.49842 49.156 9.61842 48.572 9.85842 48.068C10.0984 47.564 10.4424 47.172 10.8904 46.892C11.3464 46.612 11.8824 46.472 12.4984 46.472ZM12.4984 47.636C11.5784 47.636 11.1184 48.364 11.1184 49.82C11.1184 50.572 11.2304 51.128 11.4544 51.488C11.6864 51.84 12.0304 52.016 12.4864 52.016C12.9424 52.016 13.2824 51.836 13.5064 51.476C13.7384 51.116 13.8544 50.564 13.8544 49.82C13.8544 49.076 13.7384 48.528 13.5064 48.176C13.2824 47.816 12.9464 47.636 12.4984 47.636ZM24.9902 53H23.6582L23.5742 52.112C23.3422 52.472 23.0662 52.74 22.7462 52.916C22.4342 53.092 22.0622 53.18 21.6302 53.18C21.0622 53.18 20.6222 53.008 20.3102 52.664C20.0062 52.312 19.8542 51.828 19.8542 51.212V46.652H21.3902V51.02C21.3902 51.38 21.4502 51.636 21.5702 51.788C21.6982 51.94 21.8982 52.016 22.1702 52.016C22.6582 52.016 23.0862 51.716 23.4542 51.116V46.652H24.9902V53ZM32.972 46.484C33.204 46.484 33.416 46.512 33.608 46.568L33.344 48.056C33.152 48.008 32.964 47.984 32.78 47.984C32.404 47.984 32.108 48.12 31.892 48.392C31.676 48.656 31.504 49.064 31.376 49.616V53H29.84V46.652H31.172L31.316 47.9C31.468 47.444 31.688 47.096 31.976 46.856C32.264 46.608 32.596 46.484 32.972 46.484ZM39.7554 46.472C40.1714 46.472 40.5434 46.532 40.8714 46.652C41.2074 46.772 41.5234 46.96 41.8194 47.216L41.1354 48.14C40.9194 47.98 40.7114 47.864 40.5114 47.792C40.3114 47.72 40.0914 47.684 39.8514 47.684C38.8994 47.684 38.4234 48.408 38.4234 49.856C38.4234 50.592 38.5474 51.124 38.7954 51.452C39.0434 51.772 39.3954 51.932 39.8514 51.932C40.0754 51.932 40.2794 51.896 40.4634 51.824C40.6554 51.752 40.8794 51.636 41.1354 51.476L41.8194 52.448C41.2194 52.936 40.5354 53.18 39.7674 53.18C39.1594 53.18 38.6314 53.048 38.1834 52.784C37.7354 52.512 37.3914 52.128 37.1514 51.632C36.9114 51.136 36.7914 50.552 36.7914 49.88C36.7914 49.208 36.9114 48.616 37.1514 48.104C37.3914 47.584 37.7354 47.184 38.1834 46.904C38.6314 46.616 39.1554 46.472 39.7554 46.472ZM50.5047 51.32C50.5047 51.568 50.5407 51.752 50.6127 51.872C50.6927 51.984 50.8167 52.072 50.9847 52.136L50.6607 53.156C50.3007 53.124 50.0047 53.036 49.7727 52.892C49.5487 52.748 49.3767 52.528 49.2567 52.232C49.0407 52.552 48.7687 52.792 48.4407 52.952C48.1207 53.104 47.7607 53.18 47.3607 53.18C46.7287 53.18 46.2287 53 45.8607 52.64C45.4927 52.28 45.3087 51.808 45.3087 51.224C45.3087 50.536 45.5567 50.012 46.0527 49.652C46.5567 49.284 47.2727 49.1 48.2007 49.1H48.9927V48.74C48.9927 48.332 48.8967 48.048 48.7047 47.888C48.5207 47.72 48.2207 47.636 47.8047 47.636C47.3407 47.636 46.7807 47.748 46.1247 47.972L45.7647 46.928C46.5567 46.624 47.3247 46.472 48.0687 46.472C49.6927 46.472 50.5047 47.2 50.5047 48.656V51.32ZM47.7687 52.064C48.2887 52.064 48.6967 51.804 48.9927 51.284V50H48.3567C47.3647 50 46.8687 50.368 46.8687 51.104C46.8687 51.408 46.9447 51.644 47.0967 51.812C47.2487 51.98 47.4727 52.064 47.7687 52.064ZM62.0955 46.472C62.6075 46.472 63.0155 46.648 63.3195 47C63.6235 47.344 63.7755 47.812 63.7755 48.404V53H62.2395V48.644C62.2395 47.964 62.0075 47.624 61.5435 47.624C61.2955 47.624 61.0795 47.704 60.8955 47.864C60.7195 48.016 60.5355 48.256 60.3435 48.584V53H58.8075V48.644C58.8075 47.964 58.5755 47.624 58.1115 47.624C57.8555 47.624 57.6355 47.704 57.4515 47.864C57.2755 48.016 57.0915 48.256 56.8995 48.584V53H55.3635V46.652H56.6955L56.8155 47.48C57.2955 46.808 57.9075 46.472 58.6515 46.472C59.0195 46.472 59.3355 46.568 59.5995 46.76C59.8715 46.944 60.0675 47.204 60.1875 47.54C60.4435 47.196 60.7235 46.932 61.0275 46.748C61.3395 46.564 61.6955 46.472 62.0955 46.472ZM71.0548 44.708C72.1188 44.708 72.9428 44.928 73.5268 45.368C74.1188 45.808 74.4148 46.468 74.4148 47.348C74.4148 48.268 74.1188 48.96 73.5268 49.424C72.9348 49.88 72.1468 50.108 71.1628 50.108H70.1908V53H68.6068V44.708H71.0548ZM71.0428 48.92C71.6108 48.92 72.0388 48.804 72.3268 48.572C72.6148 48.332 72.7588 47.924 72.7588 47.348C72.7588 46.364 72.1868 45.872 71.0428 45.872H70.1908V48.92H71.0428Z" fill="white"/>
<g filter="url(#filter0_d)">
<path d="M57.037 32.1881H48.7502C48.4851 32.1881 48.2688 32.4061 48.2688 32.6734C48.2688 32.9407 48.4851 33.1587 48.7502 33.1587H57.037C57.3022 33.1587 57.5185 32.9407 57.5185 32.6734C57.5185 32.4061 57.3022 32.1881 57.037 32.1881Z" fill="white"/>
<path d="M57.037 38.34H47.7459C47.4807 38.34 47.2644 38.558 47.2644 38.8253C47.2644 39.0926 47.4807 39.3106 47.7459 39.3106H57.037C57.3022 39.3106 57.5185 39.0926 57.5185 38.8253C57.5185 38.558 57.3022 38.34 57.037 38.34Z" fill="white"/>
<path d="M19.4815 35.6916H26.9743C27.2395 35.6916 27.4558 35.4736 27.4558 35.2063C27.4558 34.939 27.2395 34.7209 26.9743 34.7209H19.4815C19.2163 34.7209 19 34.939 19 35.2063C19 35.4755 19.2163 35.6916 19.4815 35.6916Z" fill="white"/>
<path fill-rule="evenodd" clip-rule="evenodd" d="M22.7448 0.53458C22.931 0.441691 23.1529 0.479604 23.2996 0.627475L23.2999 0.627703C23.4447 0.775549 23.4823 1.00114 23.3883 1.18883C23.0892 1.79168 22.9387 2.43434 22.9387 3.09976C22.9387 5.47703 24.8684 7.41262 27.2382 7.41262C27.9021 7.41262 28.5435 7.25906 29.1453 6.95953C29.3315 6.86664 29.5534 6.90455 29.7001 7.05242C29.8468 7.20027 29.8826 7.42587 29.7904 7.61165C28.8933 9.42591 27.0877 10.552 25.079 10.552C22.1768 10.552 19.8164 8.1802 19.8164 5.26641C19.8164 3.2474 20.9393 1.43508 22.7448 0.53458ZM28.1276 8.30699C27.8342 8.35818 27.5389 8.38283 27.238 8.38283L27.2381 8.383C24.3359 8.383 21.9756 6.01315 21.9774 3.09936C21.9774 2.79604 22.0019 2.49838 22.0527 2.20453C21.2477 2.99885 20.7794 4.09081 20.7794 5.2662C20.7794 7.64536 22.7091 9.58095 25.0789 9.58095C26.2506 9.58095 27.3358 9.11272 28.1276 8.30699Z" fill="white"/>
<path fill-rule="evenodd" clip-rule="evenodd" d="M57.039 24.4099H57.0371C56.7719 24.4099 56.5575 24.6261 56.5556 24.8934L56.5443 27.4848L38.677 0.923499C38.4983 0.656197 38.0601 0.656197 37.8796 0.923499L20.0253 27.4659L20.0366 24.7151C20.0385 24.4478 19.8222 24.2279 19.557 24.2279H19.5551C19.2899 24.2279 19.0755 24.4441 19.0736 24.7114L19.0567 29.0527C19.0548 29.2669 19.194 29.4546 19.3952 29.519C19.4422 29.5342 19.4893 29.5399 19.5382 29.5399C19.6943 29.5399 19.8447 29.4621 19.9369 29.3275L22.7468 25.1512V29.0564C22.7468 29.3237 22.9631 29.5418 23.2283 29.5418H33.9523C34.4996 31.3314 36.1603 32.6357 38.1201 32.6357C38.1266 32.6357 38.1327 32.6352 38.1388 32.6347L38.1389 32.6347C38.145 32.6342 38.1511 32.6338 38.1577 32.6338C38.1605 32.6338 38.1638 32.6342 38.1671 32.6347L38.1671 32.6347L38.1672 32.6347C38.1704 32.6352 38.1737 32.6357 38.1765 32.6357C38.1825 32.6357 38.1884 32.6351 38.1944 32.6343L38.2047 32.6328C38.2141 32.6314 38.2235 32.63 38.2329 32.63C40.1419 32.5807 41.75 31.2953 42.2861 29.5418H53.3303C53.5955 29.5418 53.8118 29.3237 53.8118 29.0564V25.1511L56.6216 29.3275C56.7401 29.5038 56.9583 29.5816 57.1595 29.519C57.3608 29.4564 57.5 29.2688 57.5 29.0564L57.5188 24.8971C57.5207 24.6279 57.3062 24.4118 57.0392 24.4099L57.039 24.4099ZM38.2328 31.6596L38.2274 31.66C38.2031 31.6617 38.1803 31.6634 38.1575 31.6634C37.3225 31.652 36.6454 30.9695 36.6454 30.1316C36.6454 29.58 37.4504 28.3098 38.1764 27.3524C38.9023 28.3098 39.7073 29.5799 39.7073 30.1316C39.7073 30.9563 39.0509 31.6293 38.2328 31.6596L38.2328 31.6596ZM40.6684 30.1297C40.6684 30.2738 40.6496 30.4103 40.627 30.5468L40.627 30.5468C41.1781 29.9402 41.5166 29.1382 41.5129 28.2567C41.5129 26.8027 39.3236 23.7088 38.1161 22.1694C36.9106 23.7088 34.7194 26.8045 34.7194 28.2567C34.7194 29.2122 35.1163 30.0766 35.7501 30.6965C35.7087 30.5126 35.6805 30.325 35.6805 30.1297C35.6805 28.9012 37.4503 26.6926 37.8039 26.2623C37.9864 26.0405 38.3625 26.0405 38.545 26.2623C38.9005 26.6927 40.6684 28.9013 40.6684 30.1297ZM38.4905 21.0889C38.308 20.8671 37.9319 20.8671 37.7494 21.0889C37.3413 21.5837 33.7602 25.9969 33.7602 28.257C33.7602 28.3331 33.7651 28.4083 33.7699 28.4831V28.4832C33.7718 28.5127 33.7737 28.5422 33.7753 28.5717H28.9268V25.3717C29.555 24.8598 31.637 23.0854 33.7454 20.452C35.457 18.3155 37.4111 15.2955 38.2969 11.8527C39.1828 15.2973 41.1369 18.3152 42.8484 20.452C44.9568 23.0852 47.0388 24.8597 47.6671 25.3717V28.5717H42.4628C42.4703 28.4675 42.4778 28.3632 42.4778 28.257C42.4797 25.9973 38.8987 21.5839 38.4906 21.0889H38.4905ZM48.6278 28.5715H52.8482L52.8507 23.7203L38.2801 2.06108L23.7095 23.7203V28.5715H27.962V25.1364C27.962 24.9847 28.0316 24.8426 28.1501 24.7516L28.1504 24.7513C28.2666 24.6595 37.8134 17.1171 37.8134 8.19016C37.8134 7.92285 38.0297 7.70484 38.2949 7.70484C38.5601 7.70484 38.7764 7.92285 38.7764 8.19016C38.7764 17.114 48.3165 24.6542 48.4392 24.7512L48.4397 24.7516C48.5582 24.8445 48.6278 24.9866 48.6278 25.1364V28.5715Z" fill="white"/>
<path fill-rule="evenodd" clip-rule="evenodd" d="M45.596 34.4329C45.6393 34.5542 45.6299 34.6907 45.5735 34.8063L45.5738 34.8063C45.5155 34.9239 45.4158 35.013 45.2917 35.0547L43.5106 35.6481L45.2221 36.1353C45.3462 36.1713 45.4515 36.2547 45.5136 36.3685C45.5757 36.4822 45.5888 36.6149 45.5531 36.74L44.9381 38.8292C44.8761 39.0396 44.6861 39.1761 44.4773 39.1761C44.4341 39.1761 44.3889 39.1685 44.3457 39.1571L38.2179 37.4111L32.5941 39.286C32.5452 39.3031 32.4945 39.3107 32.4437 39.3107C32.2443 39.3107 32.0581 39.1855 31.9923 38.9846L31.2832 36.9239C31.24 36.8026 31.2494 36.6661 31.3058 36.5504C31.3622 36.4329 31.4638 36.3457 31.586 36.304L33.0718 35.8092L31.287 35.3011C31.1628 35.2651 31.0575 35.1817 30.9955 35.0679C30.9334 34.9542 30.9202 34.8215 30.956 34.6964L31.571 32.6072C31.6462 32.3513 31.9095 32.2053 32.1634 32.2774L38.3644 34.0442L44.2813 32.0707C44.5315 31.9873 44.8004 32.1219 44.8869 32.3722L45.596 34.4329ZM32.3592 33.3409L32.0169 34.4992L34.7026 35.2651L36.7339 34.5883L32.3592 33.3409ZM44.4901 36.9352L44.1478 38.0936L39.8483 36.867L41.8796 36.1902L44.4901 36.9352ZM32.3499 37.0717L32.7429 38.2149L44.5262 34.2868L44.1331 33.1437L32.3499 37.0717Z" fill="white"/>
</g>
<defs>
<filter id="filter0_d" x="15" y="0.484131" width="46.5188" height="46.8265" filterUnits="userSpaceOnUse" color-interpolation-filters="sRGB">
<feFlood flood-opacity="0" result="BackgroundImageFix"/>
<feColorMatrix in="SourceAlpha" type="matrix" values="0 0 0 0 0 0 0 0 0 0 0 0 0 0 0 0 0 0 127 0"/>
<feOffset dy="4"/>
<feGaussianBlur stdDeviation="2"/>
<feColorMatrix type="matrix" values="0 0 0 0 0 0 0 0 0 0 0 0 0 0 0 0 0 0 0.25 0"/>
<feBlend mode="normal" in2="BackgroundImageFix" result="effect1_dropShadow"/>
<feBlend mode="normal" in="SourceGraphic" in2="effect1_dropShadow" result="shape"/>
</filter>
</defs>
</svg>
